<svg xmlns="http://www.w3.org/2000/svg" xmlns:xlink="http://www.w3.org/1999/xlink" width="500" zoomAndPan="magnify" viewBox="0 0 375 374.999991" height="500" preserveAspectRatio="xMidYMid meet" version="1.0"><defs><g/><clipPath id="9c2a9ecea1"><path d="M 50 58 L 318 58 L 318 325 L 50 325 Z M 50 58 " clip-rule="nonzero"/></clipPath><clipPath id="bed4ff8510"><path d="M 188.445312 1.929688 L 334.148438 154.199219 L 140.148438 339.824219 L -5.550781 187.554688 Z M 188.445312 1.929688 " clip-rule="nonzero"/></clipPath><clipPath id="95ab96a2d5"><path d="M 188.445312 1.929688 L 374.074219 195.925781 L 180.074219 381.550781 L -5.550781 187.554688 Z M 188.445312 1.929688 " clip-rule="nonzero"/></clipPath><clipPath id="cd10a0a3e9"><path d="M 255.503906 209.015625 L 268.691406 209.015625 L 268.691406 222.207031 L 255.503906 222.207031 Z M 255.503906 209.015625 " clip-rule="nonzero"/></clipPath><clipPath id="64f99266aa"><path d="M 262.097656 209.015625 C 258.453125 209.015625 255.503906 211.96875 255.503906 215.613281 C 255.503906 219.253906 258.453125 222.207031 262.097656 222.207031 C 265.738281 222.207031 268.691406 219.253906 268.691406 215.613281 C 268.691406 211.96875 265.738281 209.015625 262.097656 209.015625 " clip-rule="nonzero"/></clipPath></defs><g clip-path="url(#9c2a9ecea1)"><g clip-path="url(#bed4ff8510)"><g clip-path="url(#95ab96a2d5)"><path fill="#ffffff" d="M 245.46875 307.484375 C 234.742188 313.039062 223.203125 316.882812 211.429688 319.222656 C 201.792969 321.074219 192.011719 322.054688 182.21875 322.007812 C 180.914062 322.039062 179.613281 321.921875 178.3125 321.875 C 177.011719 321.804688 175.707031 321.777344 174.40625 321.675781 L 170.515625 321.320312 L 168.566406 321.140625 L 166.632812 320.878906 L 162.757812 320.359375 C 161.46875 320.15625 160.191406 319.902344 158.90625 319.679688 C 156.328125 319.28125 153.800781 318.652344 151.246094 318.105469 C 150.878906 318.027344 150.496094 317.941406 150.09375 317.855469 C 149.699219 317.746094 149.289062 317.632812 148.859375 317.519531 C 148.003906 317.28125 147.082031 317.027344 146.105469 316.757812 C 144.128906 316.261719 141.984375 315.492188 139.613281 314.710938 C 139.027344 314.507812 138.417969 314.324219 137.808594 314.09375 C 137.203125 313.859375 136.589844 313.617188 135.960938 313.371094 C 134.707031 312.878906 133.40625 312.367188 132.0625 311.839844 C 129.453125 310.625 126.609375 309.476562 123.792969 307.945312 C 112.3125 302.265625 99.96875 293.269531 89.496094 282.414062 C 79.113281 271.472656 70.671875 258.746094 65.5 247.027344 C 64.097656 244.144531 63.074219 241.253906 61.976562 238.589844 C 61.507812 237.226562 61.054688 235.90625 60.617188 234.632812 C 60.402344 233.992188 60.1875 233.367188 59.976562 232.753906 C 59.773438 232.136719 59.617188 231.519531 59.441406 230.921875 C 58.761719 228.523438 58.089844 226.34375 57.679688 224.347656 C 57.453125 223.359375 57.242188 222.425781 57.046875 221.5625 C 56.945312 221.128906 56.851562 220.714844 56.761719 220.3125 C 56.691406 219.910156 56.625 219.519531 56.5625 219.152344 C 54.777344 209.519531 53.859375 199.738281 53.972656 189.945312 C 54.199219 179.515625 55.703125 169.144531 58.097656 158.980469 C 60.953125 147.316406 65.304688 135.960938 71.324219 125.488281 C 77.222656 114.941406 84.847656 105.378906 93.535156 96.921875 C 102.367188 88.617188 112.257812 81.417969 123.054688 75.996094 C 133.78125 70.441406 145.316406 66.597656 157.09375 64.253906 C 166.726562 62.40625 176.507812 61.425781 186.300781 61.472656 C 187.605469 61.441406 188.90625 61.554688 190.210938 61.601562 C 191.511719 61.671875 192.816406 61.703125 194.113281 61.800781 L 198.007812 62.160156 L 199.953125 62.335938 L 201.890625 62.601562 L 205.765625 63.121094 C 207.050781 63.324219 208.328125 63.578125 209.613281 63.796875 C 212.191406 64.199219 214.722656 64.828125 217.273438 65.371094 C 217.640625 65.453125 218.023438 65.539062 218.425781 65.625 C 218.820312 65.734375 219.234375 65.84375 219.660156 65.960938 C 220.515625 66.195312 221.4375 66.449219 222.417969 66.722656 C 224.390625 67.21875 226.539062 67.988281 228.90625 68.765625 C 229.496094 68.96875 230.105469 69.15625 230.710938 69.386719 C 231.316406 69.621094 231.933594 69.863281 232.5625 70.109375 C 233.816406 70.601562 235.117188 71.113281 236.457031 71.640625 C 239.070312 72.851562 241.914062 74.003906 244.726562 75.53125 C 256.210938 81.214844 268.550781 90.210938 279.027344 101.066406 C 289.40625 112.007812 297.847656 124.734375 303.019531 136.453125 C 304.421875 139.335938 305.445312 142.222656 306.542969 144.890625 C 307.011719 146.25 307.464844 147.574219 307.902344 148.847656 C 308.121094 149.484375 308.335938 150.113281 308.542969 150.726562 C 308.746094 151.34375 308.902344 151.960938 309.082031 152.558594 C 309.757812 154.957031 310.429688 157.136719 310.839844 159.128906 C 311.066406 160.121094 311.277344 161.050781 311.476562 161.917969 C 311.574219 162.347656 311.667969 162.765625 311.757812 163.167969 C 311.828125 163.570312 311.894531 163.957031 311.960938 164.328125 C 313.746094 173.960938 314.660156 183.742188 314.546875 193.535156 C 314.324219 203.964844 312.816406 214.335938 310.421875 224.5 C 307.566406 236.164062 303.214844 247.519531 297.195312 257.992188 C 291.300781 268.535156 283.671875 278.101562 274.988281 286.558594 C 266.15625 294.863281 256.265625 302.058594 245.46875 307.484375 Z M 277.136719 288.675781 L 277.144531 288.667969 C 286.011719 280.03125 293.808594 270.265625 299.847656 259.492188 C 306.011719 248.796875 310.460938 237.183594 313.347656 225.261719 L 314.601562 219.652344 C 314.601562 219.652344 314.898438 218.097656 315.335938 215.765625 C 315.84375 213.445312 316.191406 210.296875 316.652344 207.167969 C 316.917969 204.015625 317.296875 200.875 317.335938 198.503906 C 317.441406 196.132812 317.507812 194.554688 317.507812 194.554688 C 317.507812 194.554688 317.519531 194.160156 317.523438 193.46875 C 317.523438 192.777344 317.53125 191.789062 317.535156 190.605469 C 317.609375 188.230469 317.417969 185.078125 317.292969 181.917969 C 317.179688 180.34375 317.015625 178.769531 316.890625 177.292969 C 316.820312 176.554688 316.757812 175.84375 316.695312 175.167969 C 316.601562 174.496094 316.511719 173.859375 316.429688 173.269531 C 316.105469 170.921875 315.886719 169.355469 315.886719 169.355469 C 315.886719 169.355469 315.855469 169 315.753906 168.46875 C 315.660156 167.941406 315.539062 167.234375 315.414062 166.527344 C 315.167969 165.113281 314.917969 163.699219 314.917969 163.699219 C 314.855469 163.320312 314.785156 162.925781 314.714844 162.511719 C 314.625 162.101562 314.53125 161.675781 314.429688 161.230469 C 314.230469 160.34375 314.015625 159.390625 313.785156 158.378906 C 313.371094 156.335938 312.6875 154.105469 311.996094 151.648438 C 311.816406 151.039062 311.652344 150.40625 311.449219 149.773438 C 311.234375 149.144531 311.015625 148.503906 310.796875 147.851562 C 310.347656 146.542969 309.886719 145.191406 309.410156 143.792969 C 308.289062 141.066406 307.242188 138.109375 305.808594 135.160156 C 300.523438 123.15625 291.886719 110.121094 281.257812 98.925781 C 270.546875 87.816406 257.902344 78.613281 246.144531 72.804688 C 243.261719 71.242188 240.351562 70.0625 237.675781 68.828125 C 236.300781 68.289062 234.972656 67.765625 233.683594 67.261719 C 233.042969 67.011719 232.410156 66.765625 231.792969 66.523438 C 231.171875 66.292969 230.546875 66.101562 229.941406 65.894531 C 227.519531 65.097656 225.320312 64.316406 223.300781 63.8125 C 222.296875 63.535156 221.355469 63.28125 220.476562 63.039062 C 220.039062 62.921875 219.617188 62.808594 219.210938 62.699219 C 218.800781 62.609375 218.40625 62.523438 218.03125 62.445312 C 218.03125 62.445312 216.632812 62.132812 215.230469 61.824219 C 214.527344 61.671875 213.828125 61.515625 213.304688 61.398438 C 212.78125 61.273438 212.425781 61.230469 212.425781 61.230469 C 212.425781 61.230469 210.871094 60.941406 208.539062 60.511719 C 207.953125 60.40625 207.324219 60.289062 206.65625 60.164062 C 205.984375 60.074219 205.273438 59.976562 204.539062 59.878906 C 203.070312 59.683594 201.507812 59.449219 199.9375 59.269531 C 196.785156 59.007812 193.644531 58.675781 191.269531 58.644531 C 190.085938 58.597656 189.097656 58.558594 188.40625 58.53125 C 187.71875 58.503906 187.320312 58.5 187.320312 58.5 C 187.320312 58.5 185.742188 58.496094 183.371094 58.496094 C 181 58.429688 177.84375 58.671875 174.683594 58.796875 C 171.539062 59.121094 168.378906 59.328125 166.035156 59.730469 C 163.6875 60.070312 162.121094 60.292969 162.121094 60.292969 L 156.464844 61.300781 C 144.421875 63.65625 132.625 67.59375 121.667969 73.277344 C 110.640625 78.835938 100.542969 86.195312 91.519531 94.675781 L 91.511719 94.679688 L 91.449219 94.742188 L 91.382812 94.804688 L 91.378906 94.8125 C 82.511719 103.449219 74.710938 113.214844 68.671875 123.984375 C 62.511719 134.683594 58.058594 146.292969 55.175781 158.21875 L 53.917969 163.828125 C 53.917969 163.828125 53.625 165.382812 53.183594 167.714844 C 52.679688 170.035156 52.332031 173.183594 51.871094 176.3125 C 51.605469 179.464844 51.222656 182.605469 51.183594 184.976562 C 51.082031 187.34375 51.011719 188.925781 51.011719 188.925781 C 51.011719 188.925781 51 189.320312 51 190.011719 C 50.996094 190.703125 50.988281 191.6875 50.984375 192.875 C 50.910156 195.246094 51.105469 198.402344 51.230469 201.5625 C 51.339844 203.136719 51.503906 204.707031 51.632812 206.183594 C 51.699219 206.921875 51.765625 207.636719 51.828125 208.3125 C 51.921875 208.984375 52.007812 209.621094 52.089844 210.207031 C 52.417969 212.558594 52.636719 214.121094 52.636719 214.121094 C 52.636719 214.121094 52.664062 214.480469 52.765625 215.007812 C 52.859375 215.539062 52.984375 216.246094 53.105469 216.953125 C 53.355469 218.367188 53.601562 219.78125 53.601562 219.78125 C 53.667969 220.15625 53.734375 220.554688 53.804688 220.96875 C 53.894531 221.378906 53.992188 221.804688 54.089844 222.25 C 54.289062 223.136719 54.507812 224.085938 54.734375 225.101562 C 55.152344 227.140625 55.835938 229.375 56.523438 231.832031 C 56.703125 232.441406 56.867188 233.074219 57.074219 233.707031 C 57.285156 234.335938 57.503906 234.976562 57.726562 235.628906 C 58.171875 236.933594 58.636719 238.289062 59.113281 239.683594 C 60.230469 242.414062 61.28125 245.371094 62.710938 248.320312 C 68 260.320312 76.636719 273.359375 87.261719 284.554688 C 97.976562 295.660156 110.621094 304.863281 122.378906 310.675781 C 125.261719 312.234375 128.171875 313.414062 130.847656 314.652344 C 132.21875 315.191406 133.550781 315.714844 134.835938 316.214844 C 135.480469 316.46875 136.109375 316.714844 136.730469 316.953125 C 137.351562 317.1875 137.976562 317.378906 138.578125 317.585938 C 141.003906 318.382812 143.203125 319.164062 145.222656 319.667969 C 146.226562 319.941406 147.167969 320.199219 148.042969 320.4375 C 148.480469 320.558594 148.90625 320.671875 149.308594 320.78125 C 149.722656 320.867188 150.113281 320.953125 150.488281 321.035156 C 150.488281 321.035156 151.890625 321.34375 153.292969 321.65625 C 153.992188 321.808594 154.691406 321.964844 155.21875 322.078125 C 155.738281 322.203125 156.097656 322.25 156.097656 322.25 C 156.097656 322.25 157.652344 322.535156 159.984375 322.964844 C 160.566406 323.074219 161.199219 323.191406 161.863281 323.3125 C 162.539062 323.40625 163.246094 323.503906 163.980469 323.601562 C 165.453125 323.792969 167.015625 324.027344 168.585938 324.210938 C 171.734375 324.472656 174.878906 324.804688 177.25 324.835938 C 178.433594 324.882812 179.421875 324.921875 180.113281 324.949219 C 180.804688 324.976562 181.199219 324.980469 181.199219 324.980469 C 181.199219 324.980469 182.78125 324.980469 185.148438 324.984375 C 187.523438 325.050781 190.675781 324.808594 193.835938 324.679688 C 196.984375 324.359375 200.144531 324.152344 202.484375 323.75 C 204.835938 323.410156 206.398438 323.183594 206.398438 323.183594 L 212.058594 322.179688 C 224.097656 319.824219 235.894531 315.886719 246.851562 310.203125 C 257.878906 304.644531 267.980469 297.28125 277 288.804688 L 277.007812 288.800781 L 277.074219 288.738281 L 277.136719 288.675781 " fill-opacity="1" fill-rule="nonzero"/></g></g></g><g fill="#ffffff" fill-opacity="1"><g transform="translate(162.519659, 324.519582)"><g><path d="M 14.21875 -3.15625 C 14.175781 -2.507812 14.015625 -1.945312 13.734375 -1.46875 C 13.453125 -0.988281 13.070312 -0.59375 12.59375 -0.28125 C 12.125 0.0195312 11.582031 0.238281 10.96875 0.375 C 10.351562 0.507812 9.707031 0.5625 9.03125 0.53125 L 1.609375 0.09375 L 2.5 -15.28125 L 10.734375 -14.796875 C 11.265625 -14.765625 11.738281 -14.625 12.15625 -14.375 C 12.582031 -14.125 12.9375 -13.804688 13.21875 -13.421875 C 13.507812 -13.035156 13.722656 -12.601562 13.859375 -12.125 C 13.992188 -11.644531 14.050781 -11.164062 14.03125 -10.6875 C 13.988281 -9.9375 13.753906 -9.242188 13.328125 -8.609375 C 12.910156 -7.972656 12.332031 -7.519531 11.59375 -7.25 C 12.46875 -6.9375 13.132812 -6.425781 13.59375 -5.71875 C 14.0625 -5.007812 14.269531 -4.15625 14.21875 -3.15625 Z M 11.25 -3.890625 C 11.257812 -4.160156 11.222656 -4.421875 11.140625 -4.671875 C 11.066406 -4.929688 10.957031 -5.160156 10.8125 -5.359375 C 10.664062 -5.554688 10.488281 -5.710938 10.28125 -5.828125 C 10.070312 -5.953125 9.835938 -6.023438 9.578125 -6.046875 L 4.984375 -6.3125 L 4.734375 -2.28125 L 9.171875 -2.015625 C 9.453125 -2.003906 9.710938 -2.039062 9.953125 -2.125 C 10.203125 -2.207031 10.421875 -2.332031 10.609375 -2.5 C 10.796875 -2.675781 10.941406 -2.882812 11.046875 -3.125 C 11.160156 -3.363281 11.226562 -3.617188 11.25 -3.890625 Z M 5.34375 -12.5625 L 5.109375 -8.6875 L 9.09375 -8.453125 C 9.601562 -8.421875 10.046875 -8.566406 10.421875 -8.890625 C 10.796875 -9.210938 11.003906 -9.679688 11.046875 -10.296875 C 11.078125 -10.890625 10.9375 -11.367188 10.625 -11.734375 C 10.320312 -12.097656 9.929688 -12.296875 9.453125 -12.328125 Z M 5.34375 -12.5625 "/></g></g></g><g fill="#ffffff" fill-opacity="1"><g transform="translate(187.093091, 325.061105)"><g><path d="M 1.59375 -0.1875 L -0.21875 -15.484375 L 6.546875 -16.296875 C 7.253906 -16.378906 7.921875 -16.304688 8.546875 -16.078125 C 9.179688 -15.859375 9.738281 -15.53125 10.21875 -15.09375 C 10.707031 -14.664062 11.109375 -14.160156 11.421875 -13.578125 C 11.742188 -13.003906 11.941406 -12.40625 12.015625 -11.78125 C 12.140625 -10.800781 12 -9.875 11.59375 -9 C 11.195312 -8.125 10.59375 -7.457031 9.78125 -7 L 13.96875 -1.65625 L 10.625 -1.265625 L 6.890625 -6.03125 L 3.953125 -5.6875 L 4.5625 -0.546875 Z M 3.640625 -8.296875 L 7.375 -8.734375 C 7.644531 -8.765625 7.890625 -8.859375 8.109375 -9.015625 C 8.335938 -9.171875 8.523438 -9.367188 8.671875 -9.609375 C 8.816406 -9.847656 8.921875 -10.125 8.984375 -10.4375 C 9.046875 -10.757812 9.054688 -11.085938 9.015625 -11.421875 C 8.972656 -11.785156 8.878906 -12.109375 8.734375 -12.390625 C 8.597656 -12.679688 8.414062 -12.925781 8.1875 -13.125 C 7.957031 -13.332031 7.707031 -13.476562 7.4375 -13.5625 C 7.175781 -13.65625 6.914062 -13.6875 6.65625 -13.65625 L 3.0625 -13.234375 Z M 3.640625 -8.296875 "/></g></g></g><g fill="#ffffff" fill-opacity="1"><g transform="translate(211.054807, 321.351715)"><g><path d="M -1.25 -15.71875 L 4.546875 -9.703125 L 6.078125 -17.921875 L 9.171875 -18.859375 L 6.71875 -7.640625 L 8.265625 -2.5 L 5.4375 -1.640625 L 3.875 -6.828125 L -4.359375 -14.78125 Z M -1.25 -15.71875 "/></g></g></g><g fill="#ffffff" fill-opacity="1"><g transform="translate(233.911087, 313.575675)"><g><path d="M -1.609375 -16.453125 L 0.765625 -17.640625 L 12.9375 -6.546875 L 10.1875 -5.15625 L 7.171875 -7.9375 L 2.359375 -5.515625 L 2.84375 -1.4375 L 0.09375 -0.046875 Z M 5.734375 -9.5625 L 1.125 -14 L 1.859375 -7.609375 Z M 5.734375 -9.5625 "/></g></g></g><g fill="#ffffff" fill-opacity="1"><g transform="translate(255.36561, 301.816381)"><g><path d="M -2.328125 -10.640625 L 3.65625 -2.78125 L 1.28125 -0.96875 L -8.0625 -13.21875 L -6.21875 -14.625 L 6.28125 -11.46875 L 0.171875 -19.484375 L 2.5625 -21.296875 L 11.890625 -9.0625 L 9.953125 -7.59375 Z M -2.328125 -10.640625 "/></g></g></g><g fill="#ffffff" fill-opacity="1"><g transform="translate(275.471027, 285.057002)"><g/></g></g><g fill="#ffffff" fill-opacity="1"><g transform="translate(285.547022, 274.18976)"><g><path d="M -8.921875 -13.90625 L -7.359375 -16.0625 L 8.546875 -11.71875 L 6.734375 -9.234375 L 2.78125 -10.328125 L -0.40625 -5.96875 L 1.875 -2.578125 L 0.0625 -0.09375 Z M 0.75 -11.140625 L -5.375 -12.984375 L -1.8125 -7.625 Z M 0.75 -11.140625 "/></g></g></g><g fill="#ffffff" fill-opacity="1"><g transform="translate(299.221025, 253.975743)"><g><path d="M 0.703125 -1.453125 L -13.140625 -8.21875 L -10.140625 -14.328125 C -9.828125 -14.960938 -9.40625 -15.484375 -8.875 -15.890625 C -8.351562 -16.304688 -7.773438 -16.601562 -7.140625 -16.78125 C -6.515625 -16.957031 -5.867188 -17.019531 -5.203125 -16.96875 C -4.546875 -16.914062 -3.9375 -16.753906 -3.375 -16.484375 C -2.488281 -16.046875 -1.789062 -15.421875 -1.28125 -14.609375 C -0.769531 -13.804688 -0.535156 -12.941406 -0.578125 -12.015625 L 6.171875 -12.640625 L 4.703125 -9.609375 L -1.328125 -9.046875 L -2.625 -6.390625 L 2.015625 -4.125 Z M -4.984375 -7.546875 L -3.328125 -10.9375 C -3.210938 -11.175781 -3.160156 -11.429688 -3.171875 -11.703125 C -3.179688 -11.972656 -3.25 -12.234375 -3.375 -12.484375 C -3.5 -12.742188 -3.671875 -12.988281 -3.890625 -13.21875 C -4.117188 -13.445312 -4.390625 -13.632812 -4.703125 -13.78125 C -5.035156 -13.9375 -5.363281 -14.03125 -5.6875 -14.0625 C -6.007812 -14.09375 -6.3125 -14.066406 -6.59375 -13.984375 C -6.882812 -13.910156 -7.140625 -13.785156 -7.359375 -13.609375 C -7.585938 -13.429688 -7.757812 -13.226562 -7.875 -13 L -9.46875 -9.734375 Z M -4.984375 -7.546875 "/></g></g></g><g fill="#ffffff" fill-opacity="1"><g transform="translate(308.877054, 231.973576)"><g><path d="M 0.5 -1.53125 L -14.171875 -6.25 L -13.265625 -9.09375 L 1.40625 -4.375 Z M 0.5 -1.53125 "/></g></g></g><g fill="#ffffff" fill-opacity="1"><g transform="translate(313.34627, 216.776034)"><g><path d="M -14.203125 -8.453125 L -13.75 -11.0625 L 2.40625 -14.296875 L 1.890625 -11.265625 L -2.140625 -10.484375 L -3.03125 -5.171875 L 0.53125 -3.140625 L 0.015625 -0.109375 Z M -4.3125 -10.296875 L -10.625 -9.203125 L -5.03125 -6 Z M -4.3125 -10.296875 "/></g></g></g><g fill="#ffffff" fill-opacity="1"><g transform="translate(316.500637, 192.609151)"><g><path d="M -11.421875 -10.71875 C -11.523438 -10.625 -11.660156 -10.441406 -11.828125 -10.171875 C -12.003906 -9.898438 -12.175781 -9.570312 -12.34375 -9.1875 C -12.507812 -8.8125 -12.644531 -8.394531 -12.75 -7.9375 C -12.863281 -7.488281 -12.921875 -7.035156 -12.921875 -6.578125 C -12.921875 -5.753906 -12.765625 -5.140625 -12.453125 -4.734375 C -12.148438 -4.328125 -11.722656 -4.125 -11.171875 -4.125 C -10.847656 -4.132812 -10.582031 -4.210938 -10.375 -4.359375 C -10.164062 -4.515625 -9.984375 -4.738281 -9.828125 -5.03125 C -9.679688 -5.320312 -9.539062 -5.6875 -9.40625 -6.125 C -9.28125 -6.570312 -9.144531 -7.082031 -9 -7.65625 C -8.800781 -8.40625 -8.585938 -9.085938 -8.359375 -9.703125 C -8.128906 -10.316406 -7.84375 -10.835938 -7.5 -11.265625 C -7.15625 -11.703125 -6.738281 -12.035156 -6.25 -12.265625 C -5.769531 -12.503906 -5.175781 -12.628906 -4.46875 -12.640625 C -3.644531 -12.640625 -2.9375 -12.484375 -2.34375 -12.171875 C -1.757812 -11.867188 -1.285156 -11.453125 -0.921875 -10.921875 C -0.554688 -10.398438 -0.289062 -9.796875 -0.125 -9.109375 C 0.0390625 -8.421875 0.128906 -7.695312 0.140625 -6.9375 C 0.140625 -5.78125 -0.03125 -4.640625 -0.375 -3.515625 C -0.71875 -2.390625 -1.203125 -1.375 -1.828125 -0.46875 L -4.421875 -1.78125 C -4.285156 -1.914062 -4.113281 -2.148438 -3.90625 -2.484375 C -3.695312 -2.828125 -3.488281 -3.226562 -3.28125 -3.6875 C -3.070312 -4.15625 -2.894531 -4.671875 -2.75 -5.234375 C -2.613281 -5.796875 -2.546875 -6.375 -2.546875 -6.96875 C -2.554688 -8.625 -3.09375 -9.453125 -4.15625 -9.453125 C -4.476562 -9.453125 -4.753906 -9.351562 -4.984375 -9.15625 C -5.222656 -8.957031 -5.425781 -8.6875 -5.59375 -8.34375 C -5.769531 -8 -5.925781 -7.578125 -6.0625 -7.078125 C -6.207031 -6.585938 -6.367188 -6.039062 -6.546875 -5.4375 C -6.734375 -4.695312 -6.945312 -4.054688 -7.1875 -3.515625 C -7.425781 -2.972656 -7.707031 -2.519531 -8.03125 -2.15625 C -8.351562 -1.789062 -8.722656 -1.515625 -9.140625 -1.328125 C -9.566406 -1.148438 -10.078125 -1.0625 -10.671875 -1.0625 C -11.453125 -1.050781 -12.148438 -1.1875 -12.765625 -1.46875 C -13.378906 -1.757812 -13.890625 -2.160156 -14.296875 -2.671875 C -14.703125 -3.179688 -15.007812 -3.773438 -15.21875 -4.453125 C -15.4375 -5.140625 -15.546875 -5.875 -15.546875 -6.65625 C -15.554688 -7.738281 -15.394531 -8.734375 -15.0625 -9.640625 C -14.726562 -10.554688 -14.328125 -11.359375 -13.859375 -12.046875 Z M -11.421875 -10.71875 "/></g></g></g><g fill="#ffffff" fill-opacity="1"><g transform="translate(109.77525, 220.354407)"><g><path d="M 67.574219 -24.117188 C 65.300781 -35.949219 52.785156 -40.804688 42.773438 -42.320312 C 46.414062 -43.761719 49.902344 -45.734375 52.863281 -48.082031 C 61.355469 -54.378906 65.074219 -65.832031 59.15625 -74.855469 C 55.667969 -80.089844 49.449219 -82.289062 43.304688 -82.289062 C 34.660156 -82.289062 19.566406 -78.117188 13.574219 -72.65625 C 12.589844 -71.824219 12.894531 -71.0625 13.121094 -69.925781 C 15.546875 -53.847656 16.609375 -37.3125 13.878906 -21.539062 C 13.726562 -20.628906 14.636719 -20.25 15.851562 -20.25 C 17.671875 -20.25 20.25 -21.160156 20.402344 -22.449219 C 23.359375 -38.984375 21.765625 -57.261719 19.566406 -72.503906 C 25.710938 -75.917969 33.292969 -78.800781 40.421875 -78.800781 C 44.367188 -78.800781 48.160156 -77.738281 51.195312 -74.554688 C 63.175781 -61.8125 46.71875 -44.214844 34.203125 -42.773438 C 32.839844 -42.625 31.019531 -42.242188 30.488281 -40.953125 C 30.035156 -39.816406 31.398438 -39.4375 32.308594 -39.4375 C 42.394531 -39.4375 55.0625 -36.328125 59.535156 -26.695312 C 65.753906 -13.273438 55.894531 -0.304688 43.535156 0.757812 C 43.003906 0.757812 42.472656 0.757812 41.941406 0.757812 C 30.792969 0.757812 19.566406 -4.398438 12.4375 -12.589844 C 12.132812 -12.96875 11.527344 -13.121094 10.769531 -13.121094 C 8.496094 -13.121094 5.082031 -11.453125 6.21875 -10.085938 C 14.105469 -1.289062 26.847656 4.246094 39.210938 4.246094 C 46.035156 4.246094 52.785156 2.578125 58.472656 -1.214844 C 65.984375 -6.371094 69.242188 -15.320312 67.574219 -24.117188 Z M 67.574219 -24.117188 "/></g></g></g><g fill="#ffffff" fill-opacity="1"><g transform="translate(176.677525, 220.354407)"><g><path d="M 99.808594 2.65625 C 98.519531 8.417969 95.410156 17.59375 88.507812 17.59375 C 77.511719 17.140625 70.078125 2.199219 67.042969 -6.066406 C 59.839844 -25.253906 55.972656 -45.734375 52.101562 -65.832031 C 51.117188 -70.988281 50.132812 -76.070312 49.296875 -81.226562 C 49.144531 -82.441406 47.628906 -82.742188 46.566406 -82.742188 C 45.050781 -82.742188 42.925781 -81.832031 42.625 -80.164062 C 38.679688 -62.191406 35.113281 -43.914062 29.273438 -26.46875 C 26.925781 -19.414062 21.691406 -3.414062 13.425781 -3.414062 C 9.785156 -3.414062 5.839844 -6.371094 2.882812 -8.875 C 2.425781 -9.175781 1.820312 -9.328125 1.136719 -9.328125 C -0.683594 -9.328125 -2.957031 -8.039062 -2.957031 -6.523438 C -2.957031 -5.992188 -2.730469 -5.535156 -2.199219 -5.082031 C 1.972656 -1.441406 6.976562 1.363281 12.589844 1.363281 C 23.285156 1.363281 29.125 -10.085938 32.839844 -19.414062 C 34.964844 -19.71875 37.011719 -19.945312 38.90625 -19.945312 C 49.675781 -19.945312 57.109375 -14.863281 60.21875 -6.371094 C 64.464844 4.777344 73.113281 22.296875 87.292969 22.296875 C 99.203125 22.296875 104.433594 11.453125 106.480469 2.199219 C 106.480469 0.605469 105.117188 0.152344 104.054688 0.152344 C 102.3125 0.152344 100.035156 1.0625 99.808594 2.65625 Z M 33.902344 -21.917969 C 38.300781 -33.976562 42.925781 -58.171875 45.734375 -70.761719 C 48.082031 -58.550781 52.40625 -31.703125 55.742188 -20.023438 C 51.042969 -21.691406 46.113281 -22.222656 41.257812 -22.222656 C 38.753906 -22.222656 36.328125 -22.070312 33.902344 -21.917969 Z M 33.902344 -21.917969 "/></g></g></g><g clip-path="url(#cd10a0a3e9)"><g clip-path="url(#64f99266aa)"><path fill="#ffffff" d="M 255.503906 209.015625 L 268.691406 209.015625 L 268.691406 222.207031 L 255.503906 222.207031 Z M 255.503906 209.015625 " fill-opacity="1" fill-rule="nonzero"/></g></g></svg>